<?xml version="1.0" encoding="iso-8859-1"?>
<!-- Generator: Adobe Illustrator 18.0.0, SVG Export Plug-In . SVG Version: 6.00 Build 0)  -->
<!DOCTYPE svg PUBLIC "-//W3C//DTD SVG 1.1//EN" "http://www.w3.org/Graphics/SVG/1.1/DTD/svg11.dtd">
<svg version="1.1" id="Layer_1" xmlns="http://www.w3.org/2000/svg" xmlns:xlink="http://www.w3.org/1999/xlink" x="0px" y="0px"
	 viewBox="0 0 21.052 17.671" style="enable-background:new 0 0 21.052 17.671;" xml:space="preserve">
<g>
	<path style="fill:#009DD4;" d="M21.052,1.148c-0.137,0.675-0.302,1.494-0.47,2.311c-0.839,4.089-1.678,8.179-2.518,12.268
		c-0.065,0.319-0.119,0.641-0.208,0.954c-0.278,0.973-1.082,1.278-1.908,0.696c-0.823-0.581-1.614-1.207-2.419-1.814
		c-0.681-0.512-1.369-1.015-2.038-1.542c-0.191-0.151-0.294-0.13-0.454,0.032c-0.737,0.751-1.483,1.494-2.231,2.234
		c-0.674,0.667-1.204,0.539-1.495-0.358c-0.563-1.734-1.133-3.467-1.676-5.207c-0.093-0.296-0.244-0.43-0.526-0.521
		C3.694,9.743,2.285,9.27,0.877,8.793C0.506,8.667,0.017,8.565,0,8.105c-0.018-0.492,0.483-0.612,0.86-0.758
		c6.175-2.392,12.353-4.779,18.53-7.165c0.158-0.061,0.321-0.121,0.486-0.154C20.568-0.112,21.049,0.29,21.052,1.148z M7.99,15.209
		c0.124-0.134,0.15-0.277,0.164-0.409c0.068-0.677,0.149-1.355,0.175-2.035c0.025-0.668,0.159-1.261,0.748-1.67
		c0.139-0.096,0.255-0.226,0.38-0.342c2.366-2.214,4.732-4.426,7.095-6.643c0.175-0.164,0.325-0.356,0.478-0.542
		c0.081-0.098,0.167-0.221,0.072-0.344c-0.091-0.118-0.209-0.019-0.311,0.014c-0.312,0.102-0.592,0.272-0.867,0.447
		c-3.154,2.014-6.306,4.033-9.463,6.041c-0.233,0.148-0.287,0.274-0.195,0.547c0.486,1.446,0.943,2.901,1.418,4.35
		C7.748,14.819,7.787,15.037,7.99,15.209z"/>
</g>
</svg>
